<?xml version="1.0" encoding="UTF-8"?>
<!DOCTYPE svg PUBLIC "-//W3C//DTD SVG 1.1//EN" "http://www.w3.org/Graphics/SVG/1.1/DTD/svg11.dtd">
<!-- Creator: CorelDRAW -->
<svg xmlns="http://www.w3.org/2000/svg" xml:space="preserve" width="1.9269in" height="1.19676in" version="1.1" style="shape-rendering:geometricPrecision; text-rendering:geometricPrecision; image-rendering:optimizeQuality; fill-rule:evenodd; clip-rule:evenodd"
viewBox="0 0 14.3 8.88"
 xmlns:xlink="http://www.w3.org/1999/xlink"
 xmlns:xodm="http://www.corel.com/coreldraw/odm/2003">
 <defs>
  <style type="text/css">
   <![CDATA[
    .str0 {stroke:#316E91;stroke-width:0.05;stroke-miterlimit:2.61313}
    .fil0 {fill:#316E91}
   ]]>
  </style>
 </defs>
 <g id="Layer_x0020_1">
  <metadata id="CorelCorpID_0Corel-Layer"/>
  <g id="_2750675054368">
   <path class="fil0 str0" d="M7.24 6.49l-0.44 0 0.48 1.76 0.45 -0 0.27 -1.09c0.01,0.02 0.01,0.03 0.02,0.07l0.12 0.48c0.04,0.18 0.1,0.36 0.14,0.54l0.45 -0 0.48 -1.75 -0.41 0c-0.02,0.1 -0.05,0.22 -0.07,0.32 -0.02,0.08 -0.2,0.93 -0.21,0.96l-0.28 -1.28 -0.43 0c-0.02,0.1 -0.05,0.22 -0.07,0.32 -0.02,0.1 -0.2,0.94 -0.21,0.96l-0.28 -1.28z"/>
   <path class="fil0 str0" d="M11.01 8.25l0.4 0 0 -1.03c0.05,0.06 0.3,0.45 0.36,0.54l0.12 0.18c0.01,-0.01 0.05,-0.07 0.06,-0.09 0.02,-0.03 0.04,-0.06 0.06,-0.09 0.04,-0.06 0.08,-0.12 0.12,-0.18 0.02,-0.03 0.22,-0.34 0.24,-0.36l0 1.04 0.4 0 -0 -1.75c-0.07,-0 -0.28,-0 -0.36,-0 -0.02,0 -0.12,0.16 -0.13,0.18l-0.31 0.48c-0.02,0.02 -0.05,0.08 -0.07,0.1 -0.01,-0.01 -0.24,-0.36 -0.25,-0.38l-0.25 -0.38 -0.38 0 0 1.75z"/>
   <path class="fil0 str0" d="M0.03 7.7c0.06,0.7 0.9,0.66 1.19,0.42 0.11,-0.09 0.2,-0.24 0.18,-0.47 -0.07,-0.62 -0.92,-0.35 -0.95,-0.64 -0.01,-0.1 0.07,-0.16 0.14,-0.18 0.15,-0.04 0.37,-0.01 0.4,0.21l0.39 -0c-0.04,-0.43 -0.35,-0.58 -0.72,-0.56 -0.36,0.01 -0.68,0.25 -0.59,0.67 0.04,0.18 0.15,0.28 0.31,0.34 0.24,0.09 0.71,0.06 0.63,0.31 -0.05,0.16 -0.35,0.16 -0.46,0.1 -0.12,-0.06 -0.11,-0.15 -0.13,-0.19l-0.39 -0z"/>
   <path class="fil0 str0" d="M4.62 7.24c0.38,-0.08 0.45,0.63 0.1,0.7 -0.19,0.04 -0.31,-0.12 -0.33,-0.29 -0.02,-0.21 0.07,-0.38 0.23,-0.41zm0.33 -0.15c-0.01,-0.01 -0.04,-0.04 -0.06,-0.06 -0.15,-0.15 -0.41,-0.15 -0.58,-0.05 -0.43,0.26 -0.37,1.02 0,1.23 0.2,0.11 0.41,0.08 0.58,-0.07 0.02,-0.02 0.04,-0.04 0.06,-0.05l0 0.16 0.36 -0 0 -1.85 -0.36 -0 -0 0.7z"/>
   <path class="fil0 str0" d="M13.36 7.46c0.03,-0.12 0.13,-0.24 0.27,-0.23 0.14,0 0.24,0.11 0.27,0.23l-0.54 0zm0.91 0.26c0.02,-0.22 -0.02,-0.39 -0.12,-0.53 -0.29,-0.42 -1.03,-0.34 -1.16,0.24 -0.15,0.67 0.5,1.03 0.96,0.77 0.13,-0.07 0.25,-0.22 0.28,-0.37l-0.38 0c-0.08,0.22 -0.46,0.21 -0.51,-0.11l0.92 0z"/>
   <path class="fil0 str0" d="M5.44 6.94c0.02,0.08 0.06,0.16 0.08,0.23 0.03,0.08 0.06,0.15 0.09,0.23l0.26 0.68c0.01,0.03 0.06,0.13 0.07,0.19 0,0.02 0,0.02 0,0.04 -0,0.03 -0,0.05 -0,0.06 -0.03,0.19 -0.2,0.17 -0.36,0.13l-0 0.32c0,0.01 0.02,0.01 0.05,0.02 0.31,0.05 0.59,0 0.67,-0.31 0.11,-0.43 0.2,-0.71 0.36,-1.13 0.04,-0.11 0.14,-0.36 0.17,-0.46l-0.38 0 -0.3 0.88c-0,-0 -0,-0.01 -0,-0.01 -0,-0 -0,-0.01 -0.01,-0.02l-0.03 -0.08c-0.08,-0.26 -0.18,-0.53 -0.26,-0.78l-0.4 -0z"/>
   <path class="fil0 str0" d="M2.61 6.94c0,0.17 0,0.33 0,0.5 0,0.17 -0.01,0.3 0.04,0.45 0.18,0.51 0.96,0.51 1.13,-0.01 0.05,-0.15 0.04,-0.29 0.04,-0.45 0,-0.16 0,-0.33 0,-0.5l-0.36 -0c0,0.21 0,0.43 0,0.64 0,0.11 0.01,0.19 -0.04,0.27 -0.09,0.13 -0.3,0.14 -0.4,-0 -0.05,-0.07 -0.04,-0.17 -0.04,-0.27 0,-0.21 0,-0.42 0,-0.64l-0.36 -0z"/>
   <path class="fil0 str0" d="M1.51 7.25l0.2 0 0 0.5c0,0.44 0.26,0.56 0.6,0.51l0.09 -0.01c0.02,-0.01 0.01,0 0.02,-0.01l-0 -0.31c-0.15,0.03 -0.32,0.05 -0.35,-0.13 -0.01,-0.06 -0,-0.45 -0,-0.54l0.35 -0 0 -0.31c-0.08,0 -0.28,0 -0.35,-0l0 -0.34c-0.07,-0 -0.31,-0 -0.36,0l-0 0.34 -0.2 0 0 0.31z"/>
   <path class="fil0 str0" d="M9.88 7.25l0.2 0 0 0.5c0,0.48 0.32,0.56 0.66,0.5 0.03,-0.01 0.04,-0 0.05,-0.02l-0 -0.31c-0.15,0.03 -0.32,0.05 -0.35,-0.13 -0.01,-0.06 -0,-0.45 -0,-0.54l0.35 -0 0 -0.31c-0.08,0 -0.28,0 -0.35,-0l0 -0.34c-0.07,-0 -0.31,-0 -0.36,0l0 0.34 -0.2 0 0 0.31z"/>
   <polygon class="fil0 str0" points="9.33,8.25 9.69,8.25 9.69,6.94 9.35,6.94 9.33,6.94 "/>
   <path class="fil0 str0" d="M9.49 6.35c-0.27,0.04 -0.22,0.47 0.05,0.43 0.27,-0.03 0.22,-0.47 -0.05,-0.43z"/>
  </g>
  <path class="fil0 str0" d="M4.71 1.11c0,0.18 0.07,0.16 0.39,0.29 0.09,0.04 0.38,0.16 0.47,0.17 0,0.55 -0.05,0.58 0.09,0.56 0.06,-0.01 0.1,-0.02 0.15,-0.03 0.32,-0.07 0.65,-0.06 0.94,0.06 0.41,0.16 0.28,0.3 0.6,0.09 0.31,-0.2 0.74,-0.23 1.11,-0.17 0.1,0.02 0.15,0.04 0.25,0.04l0 -0.56 0.42 -0.16c0,0.2 0.02,0.25 -0.05,0.39 -0.05,0.1 -0.12,0.2 -0.12,0.33 0,0.44 0.91,0.41 0.56,-0.26 -0.12,-0.23 -0.09,-0.18 -0.09,-0.52 0,-0.07 0.07,-0.04 0.14,-0.11 0.05,-0.04 0.06,-0.11 0.04,-0.17 -0.04,-0.1 -0.51,-0.24 -0.68,-0.32l-1.24 -0.51c-0.06,-0.03 -0.11,-0.04 -0.17,-0.07 -0.47,-0.21 -0.31,-0.16 -1,0.12l-1.69 0.71c-0.06,0.03 -0.1,0.05 -0.1,0.13zm3.19 2.21c0,0.34 0.28,0.35 0.36,0.22 0.27,-0.45 -0.36,-0.64 -0.36,-0.22zm-1.94 -0.07c0,0.13 -0.01,0.37 0.23,0.37 0.21,0 0.31,-0.49 0.01,-0.53 -0.14,-0.02 -0.24,0.12 -0.24,0.17zm0.53 1.09c0,0.27 0.57,0.68 1.08,0.35 0.09,-0.06 0.29,-0.28 0.18,-0.4 -0.1,-0.11 -0.15,0.02 -0.31,0.08 -0.07,0.03 -0.2,0.08 -0.29,0.07 -0.34,-0.02 -0.43,-0.2 -0.55,-0.2 -0.04,0 -0.12,0.08 -0.12,0.11zm-1.28 -0.75l0.01 0.02c0.02,0.03 0,0 0.02,0.03 0.01,0.02 0.01,0.04 0.03,0.06 0.02,0.05 0.04,0.08 0.07,0.12 0.24,0.37 0.72,0.5 1.14,0.29 0.27,-0.13 0.43,-0.34 0.49,-0.63 0.01,-0.03 0.01,-0.08 0.01,-0.11 0.01,-0.05 0.03,-0.08 0.18,-0.08 0.3,-0.02 0.07,0.27 0.39,0.6 0.35,0.38 0.9,0.42 1.25,0.12 0.1,-0.09 0.2,-0.2 0.26,-0.32 0.02,-0.03 0.02,-0.04 0.03,-0.07l0.03 1.5 -0.34 -0.05c-0.56,-0.08 -1.03,0.01 -1.47,0.3 -0.05,0.04 -0.07,0.06 -0.12,0.09 -0.14,-0.04 -0.52,-0.51 -1.61,-0.4 -0.11,0.01 -0.24,0.05 -0.35,0.05l0 -1.03c0,-0.19 -0.02,-0.32 -0.02,-0.51zm2.4 -0.28c0,-0.86 1.24,-0.84 1.24,0.02 0,0.29 -0.27,0.6 -0.54,0.6 -0.22,0 -0.34,-0.01 -0.53,-0.19 -0.08,-0.08 -0.17,-0.27 -0.17,-0.42zm-2.15 0c0,-0.34 0.26,-0.63 0.6,-0.63 0.2,0 0.33,0.02 0.49,0.19 0.38,0.43 0.02,1.05 -0.44,1.05 -0.2,0 -0.35,-0.03 -0.49,-0.2 -0.08,-0.09 -0.16,-0.25 -0.16,-0.42zm-0.6 -0.81l0 2.82c0,0.21 0.15,0.32 0.28,0.32l0.37 -0.07c0.46,-0.09 1,-0.01 1.39,0.2 0.33,0.17 0.18,0.19 0.5,0 0.1,-0.06 0.17,-0.09 0.28,-0.12 0.34,-0.11 0.77,-0.14 1.13,-0.08 0.19,0.03 0.61,0.17 0.61,-0.19l0 -2.73c0,-0.08 -0.08,-0.05 -0.26,-0.05 -0.13,0 -0.05,0.29 -0.05,0.39l-0.03 0c-0.02,-0.22 -0.43,-0.61 -0.86,-0.61 -0.36,0 -0.69,0.24 -0.82,0.54 -0.02,0.05 -0.03,0.11 -0.05,0.16 -0.11,-0 -0.22,-0.05 -0.37,0.02 -0.08,-0.18 -0.09,-0.31 -0.31,-0.49 -0.33,-0.28 -0.85,-0.3 -1.14,-0.03 -0.27,0.25 -0.23,0.33 -0.32,0.43 0,-0.09 0.02,-0.1 0.02,-0.19 0,-0.54 0.05,-0.56 -0.14,-0.56 -0.12,0 -0.23,0.13 -0.23,0.26z"/>
 </g>
</svg>
