<?xml version="1.0" encoding="UTF-8"?>
<!DOCTYPE svg PUBLIC "-//W3C//DTD SVG 1.1//EN" "http://www.w3.org/Graphics/SVG/1.1/DTD/svg11.dtd">
<!-- Creator: CorelDRAW -->
<svg xmlns="http://www.w3.org/2000/svg" xml:space="preserve" width="0.666295in" height="0.796697in" version="1.1" style="shape-rendering:geometricPrecision; text-rendering:geometricPrecision; image-rendering:optimizeQuality; fill-rule:evenodd; clip-rule:evenodd"
viewBox="0 0 1.7 2.03"
 xmlns:xlink="http://www.w3.org/1999/xlink"
 xmlns:xodm="http://www.corel.com/coreldraw/odm/2003">
 <defs>
  <style type="text/css">
   <![CDATA[
    .str0 {stroke:#316E91;stroke-width:0.02;stroke-miterlimit:2.61313}
    .fil0 {fill:#316E91}
   ]]>
  </style>
 </defs>
 <g id="Layer_x0020_1">
  <metadata id="CorelCorpID_0Corel-Layer"/>
  <path class="fil0 str0" d="M0.01 0.38c0,0.06 0.02,0.06 0.14,0.1 0.03,0.01 0.13,0.06 0.16,0.06 0,0.19 -0.02,0.2 0.03,0.19 0.02,-0 0.03,-0.01 0.05,-0.01 0.11,-0.02 0.22,-0.02 0.32,0.02 0.14,0.06 0.1,0.1 0.2,0.03 0.11,-0.07 0.26,-0.08 0.38,-0.06 0.03,0.01 0.05,0.01 0.09,0.01l0 -0.19 0.14 -0.05c0,0.07 0.01,0.08 -0.02,0.13 -0.02,0.03 -0.04,0.07 -0.04,0.11 0,0.15 0.31,0.14 0.19,-0.09 -0.04,-0.08 -0.03,-0.06 -0.03,-0.18 0,-0.02 0.02,-0.01 0.05,-0.04 0.02,-0.01 0.02,-0.04 0.01,-0.06 -0.01,-0.03 -0.18,-0.08 -0.23,-0.11l-0.43 -0.18c-0.02,-0.01 -0.04,-0.01 -0.06,-0.02 -0.16,-0.07 -0.11,-0.05 -0.34,0.04l-0.58 0.24c-0.02,0.01 -0.03,0.02 -0.03,0.04zm1.1 0.76c0,0.12 0.1,0.12 0.12,0.07 0.09,-0.15 -0.12,-0.22 -0.12,-0.07zm-0.67 -0.02c0,0.04 -0,0.13 0.08,0.13 0.07,0 0.11,-0.17 0,-0.18 -0.05,-0.01 -0.08,0.04 -0.08,0.06zm0.18 0.37c0,0.09 0.2,0.23 0.37,0.12 0.03,-0.02 0.1,-0.1 0.06,-0.14 -0.04,-0.04 -0.05,0.01 -0.11,0.03 -0.03,0.01 -0.07,0.03 -0.1,0.02 -0.12,-0.01 -0.15,-0.07 -0.19,-0.07 -0.01,0 -0.04,0.03 -0.04,0.04zm-0.44 -0.26l0.01 0.01c0.01,0.01 0,0 0.01,0.01 0,0.01 0,0.01 0.01,0.02 0.01,0.02 0.01,0.03 0.02,0.04 0.08,0.13 0.25,0.17 0.39,0.1 0.09,-0.05 0.15,-0.12 0.17,-0.22 0,-0.01 0,-0.03 0.01,-0.04 0,-0.02 0.01,-0.03 0.06,-0.03 0.1,-0.01 0.03,0.09 0.13,0.21 0.12,0.13 0.31,0.14 0.43,0.04 0.03,-0.03 0.07,-0.07 0.09,-0.11 0.01,-0.01 0.01,-0.01 0.01,-0.03l0.01 0.52 -0.12 -0.02c-0.19,-0.03 -0.35,0 -0.5,0.1 -0.02,0.01 -0.03,0.02 -0.04,0.03 -0.05,-0.01 -0.18,-0.17 -0.55,-0.14 -0.04,0 -0.08,0.02 -0.12,0.02l0 -0.36c0,-0.07 -0.01,-0.11 -0.01,-0.17zm0.83 -0.1c0,-0.3 0.43,-0.29 0.43,0.01 0,0.1 -0.09,0.2 -0.19,0.2 -0.07,0 -0.12,-0 -0.18,-0.07 -0.03,-0.03 -0.06,-0.09 -0.06,-0.14zm-0.74 0c0,-0.12 0.09,-0.22 0.2,-0.22 0.07,0 0.11,0.01 0.17,0.07 0.13,0.15 0.01,0.36 -0.15,0.36 -0.07,0 -0.12,-0.01 -0.17,-0.07 -0.03,-0.03 -0.06,-0.09 -0.06,-0.14zm-0.2 -0.28l0 0.97c0,0.07 0.05,0.11 0.1,0.11l0.13 -0.02c0.16,-0.03 0.34,-0 0.48,0.07 0.11,0.06 0.06,0.07 0.17,0 0.03,-0.02 0.06,-0.03 0.1,-0.04 0.12,-0.04 0.26,-0.05 0.39,-0.03 0.06,0.01 0.21,0.06 0.21,-0.07l0 -0.94c0,-0.03 -0.03,-0.02 -0.09,-0.02 -0.04,0 -0.02,0.1 -0.02,0.13l-0.01 0c-0.01,-0.08 -0.15,-0.21 -0.3,-0.21 -0.13,0 -0.24,0.08 -0.28,0.19 -0.01,0.02 -0.01,0.04 -0.02,0.05 -0.04,-0 -0.08,-0.02 -0.13,0.01 -0.03,-0.06 -0.03,-0.11 -0.11,-0.17 -0.11,-0.1 -0.29,-0.1 -0.39,-0.01 -0.09,0.09 -0.08,0.11 -0.11,0.15 0,-0.03 0.01,-0.03 0.01,-0.07 0,-0.18 0.02,-0.19 -0.05,-0.19 -0.04,0 -0.08,0.05 -0.08,0.09z"/>
 </g>
</svg>
